<svg fill="none" height="31" viewBox="0 0 145 31" width="145" xmlns="http://www.w3.org/2000/svg"><g fill="#fffbfb"><path d="m0 23.808v-22.912h8.384c4.416 0 7.136 2.24 7.136 5.92 0 2.688-1.184 4.512-3.552 5.44 2.656.864 4 2.72 4 5.536 0 3.68-2.752 6.016-7.104 6.016zm8.352-20.864h-6.048v8.384h6.336c2.88 0 4.512-1.6 4.512-4.32 0-2.56-1.728-4.064-4.8-4.064zm.512 10.4h-6.56v8.384h6.56c3.008 0 4.768-1.568 4.768-4.224 0-2.592-1.792-4.16-4.768-4.16z"/><path d="m17.7645 30.56v-1.824h1.696c1.344 0 2.688-.096 3.456-2.176l.672-1.824-6.272-16.416h2.336l4.992 13.504 4.896-13.504h2.272l-7.104 19.04c-.896 2.432-2.4 3.424-4.608 3.424-.928 0-1.632-.064-2.336-.224z"/><path d="m37.947 23.808h-2.176v-13.632h-3.104v-1.856h3.104v-4.896h2.176v4.896h3.104v1.856h-3.104z"/><path d="m50.266 24.192c-4.544 0-7.584-3.264-7.584-8.128 0-4.832 3.008-8.16 7.424-8.16 4.192 0 7.04 2.976 7.04 7.36v1.088h-12.32c.16 3.776 2.144 5.952 5.472 5.952 2.528 0 4.16-1.088 4.736-3.136h2.112c-.832 3.264-3.232 5.024-6.88 5.024zm-.16-14.4c-2.912 0-4.832 1.92-5.216 4.96h10.048c0-2.976-1.92-4.96-4.832-4.96z"/><path d="m58.9162 4.192v-3.776h17.7921v3.776h-6.848v19.616h-4.096v-19.616z"/><path d="m87.277 7.936v3.616h-1.44c-2.816 0-4.576 1.504-4.576 4.576v7.68h-3.904v-15.776h3.68l.224 2.304c.672-1.568 2.176-2.624 4.288-2.624.544 0 1.088.064 1.728.224z"/><path d="m93.9985 24.224c-3.36 0-5.408-1.952-5.408-4.928 0-2.912 2.112-4.736 5.856-5.024l4.736-.352v-.352c0-2.144-1.28-3.008-3.264-3.008-2.304 0-3.584.96-3.584 2.624h-3.328c0-3.424 2.816-5.664 7.104-5.664 4.2565 0 6.8805 2.304 6.8805 6.688v9.6h-3.4245l-.288-2.336c-.672 1.632-2.816 2.752-5.28 2.752zm1.28-2.944c2.4 0 3.936-1.44 3.936-3.872v-.832l-3.296.256c-2.432.224-3.36 1.024-3.36 2.304 0 1.44.96 2.144 2.72 2.144z"/><path d="m108.778 4.832c-1.344 0-2.4-1.056-2.4-2.368s1.056-2.336 2.4-2.336c1.28 0 2.336 1.024 2.336 2.336s-1.056 2.368-2.336 2.368zm-1.952 18.976v-15.808h3.904v15.808z"/><path d="m118.699 23.808h-3.872v-23.808h3.872z"/><path d="m122.699 27.232v-2.88h13.6v2.88z"/></g><path d="m144.299 18.272c0 2.2091-1.791 4-4 4-2.21 0-4-1.7909-4-4s1.79-4 4-4c2.209 0 4 1.7909 4 4z" fill="#8f7bde"/></svg>